<svg width="400" height="400" viewBox="0 0 400 400" fill="none" xmlns="http://www.w3.org/2000/svg">
<path d="M176.85 12.0338C177.167 10.5121 177.333 8.94069 177.333 7.33333C177.333 5.27373 177.06 3.27307 176.546 1.36063C184.239 0.462022 192.066 0 200 0C310.457 0 400 89.5431 400 200C400 310.457 310.457 400 200 400C89.5431 400 0 310.457 0 200C0 192.304 0.434661 184.71 1.28077 177.24C2.90041 179.006 4.72996 180 6.66667 180C8.59915 180 10.4249 179.01 12.042 177.252C13.9764 267.489 82.5957 340 173.333 340C265.381 340 340 265.381 340 173.333C340 82.4609 267.274 13.7726 176.85 12.0338Z" fill="#1D1B19"/>
<path d="M12 177.333C12 180.279 9.61219 182.667 6.66667 182.667C3.72115 182.667 1.33333 180.279 1.33333 177.333C1.33333 174.388 3.72115 172 6.66667 172C9.61219 172 12 174.388 12 177.333Z" fill="#1D1B19"/>
<path d="M182.667 6.66667C182.667 9.61219 180.279 12 177.333 12C174.388 12 172 9.61219 172 6.66667C172 3.72115 174.388 1.33333 177.333 1.33333C180.279 1.33333 182.667 3.72115 182.667 6.66667Z" fill="#1D1B19"/>
<path d="M231.008 86.9205C270.061 125.973 270.061 189.289 231.008 228.342C191.956 267.394 128.639 267.394 89.5871 228.342C50.5346 189.289 50.5346 125.973 89.5871 86.9205C128.639 47.8681 191.956 47.8681 231.008 86.9205Z" fill="#1D1B19"/>
</svg>
