<svg width="400" height="400" viewBox="0 0 400 400" fill="none" xmlns="http://www.w3.org/2000/svg">
<g clip-path="url(#clip0_3_2)">
<path d="M176.85 12.0338C177.167 10.5121 177.333 8.94069 177.333 7.33333C177.333 5.27373 177.06 3.27307 176.546 1.36063C184.239 0.462022 192.066 0 200 0C310.457 0 400 89.5431 400 200C400 310.457 310.457 400 200 400C89.5431 400 0 310.457 0 200C0 192.304 0.434661 184.71 1.28077 177.24C2.90041 179.006 4.72996 180 6.66667 180C8.59915 180 10.4249 179.01 12.042 177.252C13.9764 267.489 82.5957 340 173.333 340C265.381 340 340 265.381 340 173.333C340 82.4609 267.274 13.7726 176.85 12.0338Z" fill="#FFFDFD"/>
<path d="M11.9999 177.333C11.9999 180.279 9.61211 182.667 6.66659 182.667C3.72107 182.667 1.33325 180.279 1.33325 177.333C1.33325 174.388 3.72107 172 6.66659 172C9.61211 172 11.9999 174.388 11.9999 177.333Z" fill="#FFFDFD"/>
<path d="M182.667 6.66668C182.667 9.6122 180.279 12 177.333 12C174.388 12 172 9.6122 172 6.66668C172 3.72116 174.388 1.33334 177.333 1.33334C180.279 1.33334 182.667 3.72116 182.667 6.66668Z" fill="#FFFDFD"/>
<path d="M231.008 86.9205C270.061 125.973 270.061 189.289 231.008 228.342C191.956 267.394 128.639 267.394 89.587 228.342C50.5345 189.289 50.5345 125.973 89.587 86.9205C128.639 47.8681 191.956 47.8681 231.008 86.9205Z" fill="#FFFDFD"/>
</g>
<defs>
<clipPath id="clip0_3_2">
<rect width="400" height="400" fill="white"/>
</clipPath>
</defs>
</svg>
